<svg width="33" height="34" viewBox="0 0 33 34" fill="none" xmlns="http://www.w3.org/2000/svg">
<g filter="url(#filter0_d)">
<path d="M20.1934 18.8072C20.181 18.8155 20.1683 18.8235 20.1552 18.8311C20.1427 18.8383 20.1302 18.845 20.1174 18.8513C19.0501 19.4616 17.815 19.8106 16.5 19.8106C15.1846 19.8106 13.9492 19.4614 12.8817 18.8509C12.8692 18.8447 12.857 18.8381 12.8448 18.8311C12.8319 18.8238 12.8194 18.8159 12.8073 18.8078C10.6443 17.5366 9.18913 15.1851 9.18913 12.5C9.18913 9.81489 10.6442 7.46338 12.8072 6.19226C12.8193 6.18401 12.8319 6.17625 12.8448 6.16876C12.857 6.16162 12.8694 6.15511 12.8818 6.14894C13.9493 5.53843 15.1846 5.18928 16.5 5.18928C17.8151 5.18928 19.05 5.53823 20.1173 6.14853C20.1301 6.15483 20.1426 6.16155 20.1552 6.16876C20.1683 6.17632 20.1811 6.18436 20.1936 6.19274C22.3558 7.46407 23.8105 9.81538 23.8105 12.5C23.8106 15.1847 22.356 17.536 20.1934 18.8072ZM16.5 18.563C17.3811 18.563 18.219 18.374 18.9751 18.0346L17.3375 15.1981C17.0728 15.2805 16.7915 15.3249 16.5 15.3249C16.2084 15.3249 15.9272 15.2805 15.6623 15.1982L14.0248 18.0347C14.781 18.3741 15.6188 18.563 16.5 18.563ZM18.0774 12.5C18.0774 11.6301 17.3698 10.9224 16.5 10.9224C15.6301 10.9224 14.9222 11.6301 14.9222 12.5C14.9222 13.3698 15.63 14.0775 16.5 14.0775C17.3698 14.0774 18.0774 13.3697 18.0774 12.5ZM12.9455 17.4093L14.5828 14.5732C14.1708 14.192 13.8723 13.6897 13.7442 13.1237H10.4685C10.6491 14.8829 11.5849 16.4215 12.9455 17.4093ZM10.4685 11.8762H13.7442C13.8723 11.3101 14.1708 10.808 14.5829 10.4267L12.9455 7.59062C11.5849 8.57836 10.6491 10.1171 10.4685 11.8762ZM16.5 6.43677C15.6188 6.43677 14.7809 6.62576 14.0248 6.96515L15.6623 9.80159C15.9272 9.71925 16.2084 9.6749 16.5 9.6749C16.7915 9.6749 17.0728 9.71932 17.3375 9.80165L18.9751 6.96522C18.219 6.62576 17.3811 6.43677 16.5 6.43677ZM20.0545 7.59069L18.4171 10.4269C18.8289 10.808 19.1275 11.3103 19.2555 11.8762H22.5312C22.3506 10.1173 21.4148 8.57842 20.0545 7.59069ZM19.2555 13.1237C19.1275 13.6897 18.829 14.1918 18.4171 14.5731L20.0545 17.4092C21.4148 16.4214 22.3506 14.8827 22.5312 13.1237H19.2555ZM16.5 24.9999C9.60746 24.9999 4 19.3925 4 12.5C4 5.60746 9.60746 3.8147e-06 16.5 3.8147e-06C23.3923 3.8147e-06 28.9997 5.60746 28.9997 12.5C28.9997 19.3925 23.3923 24.9999 16.5 24.9999ZM16.5 1.24742C10.2953 1.24742 5.24749 6.29524 5.24749 12.4999C5.24749 18.7046 10.2953 23.7525 16.5 23.7525C22.7044 23.7525 27.7522 18.7046 27.7522 12.5C27.7522 6.29531 22.7045 1.24742 16.5 1.24742Z" fill="black"/>
</g>
<defs>
<filter id="filter0_d" x="0" y="0" width="33" height="34" filterUnits="userSpaceOnUse" color-interpolation-filters="sRGB">
<feFlood flood-opacity="0" result="BackgroundImageFix"/>
<feColorMatrix in="SourceAlpha" type="matrix" values="0 0 0 0 0 0 0 0 0 0 0 0 0 0 0 0 0 0 127 0" result="hardAlpha"/>
<feOffset dy="5"/>
<feGaussianBlur stdDeviation="2"/>
<feComposite in2="hardAlpha" operator="out"/>
<feColorMatrix type="matrix" values="0 0 0 0 0 0 0 0 0 0 0 0 0 0 0 0 0 0 0.25 0"/>
<feBlend mode="normal" in2="BackgroundImageFix" result="effect1_dropShadow"/>
<feBlend mode="normal" in="SourceGraphic" in2="effect1_dropShadow" result="shape"/>
</filter>
</defs>
</svg>
