<svg height="512" viewBox="0 0 128 128" width="512" xmlns="http://www.w3.org/2000/svg"><path d="m102.1 36.518a1.75 1.75 0 0 0 -2.88-.633l-7.28 7.282-7.108-7.107 7.283-7.283a1.75 1.75 0 0 0 -.633-2.88 18.014 18.014 0 0 0 -18.9 4.136 17.807 17.807 0 0 0 -4.565 17.581l-23.861 24.877a15.583 15.583 0 0 0 -18.4 20.527 1.749 1.749 0 0 0 2.88.632l6.043-6.05 5.721 5.721-6.05 6.048a1.75 1.75 0 0 0 .632 2.879 15.585 15.585 0 0 0 20.528-18.4l24.876-23.86a17.814 17.814 0 0 0 17.581-4.565 18.012 18.012 0 0 0 4.133-18.905zm-6.612 16.43a14.349 14.349 0 0 1 -14.988 3.406 1.752 1.752 0 0 0 -1.788.39l-26.388 25.3a1.752 1.752 0 0 0 -.453 1.806 12.077 12.077 0 0 1 -12.839 15.78l5.076-5.075a1.749 1.749 0 0 0 0-2.475l-8.193-8.193a1.8 1.8 0 0 0 -2.475 0l-5.075 5.075a12.076 12.076 0 0 1 15.78-12.838 1.758 1.758 0 0 0 1.8-.452l25.311-26.384a1.752 1.752 0 0 0 .39-1.788 14.42 14.42 0 0 1 15.835-19.039l-6.361 6.361a1.749 1.749 0 0 0 0 2.475l9.58 9.582a1.749 1.749 0 0 0 2.475 0l6.361-6.361a14.493 14.493 0 0 1 -4.044 12.43z"/></svg>