<svg width="320" height="338" viewBox="0 0 320 338" fill="none" xmlns="http://www.w3.org/2000/svg">
<g opacity="0.1" filter="url(#filter0_d)">
<path d="M312.581 46.9356C312.175 45.8317 311.498 44.8478 310.611 44.0746C309.725 43.3014 308.658 42.7638 307.509 42.5113C306.36 42.2588 305.166 42.2996 304.037 42.6298C302.908 42.9601 301.881 43.5692 301.049 44.401L271.898 73.5584L243.436 45.1018L272.599 15.9404C273.431 15.1088 274.04 14.0812 274.37 12.9523C274.701 11.8234 274.741 10.6295 274.489 9.4807C274.236 8.3319 273.699 7.26515 272.925 6.37877C272.152 5.49239 271.168 4.8149 270.064 4.40877C257.181 -0.314917 243.217 -1.26589 229.812 1.66745C216.407 4.6008 204.117 11.2968 194.384 20.9695C185.301 29.9831 178.81 41.2752 175.594 53.6611C172.378 66.047 172.554 79.0702 176.105 91.3643L80.5604 190.973C69.5429 188.213 57.981 188.512 47.1211 191.839C36.2613 195.166 26.5155 201.393 18.9344 209.85C11.3532 218.307 6.2243 228.673 4.10053 239.83C1.97677 250.988 2.93872 262.513 6.88269 273.163C7.28843 274.268 7.96585 275.252 8.85242 276.025C9.73898 276.799 10.8061 277.336 11.9553 277.589C13.1045 277.841 14.2987 277.799 15.4277 277.468C16.5566 277.137 17.584 276.527 18.4148 275.694L42.6124 251.47L65.5205 274.377L41.295 298.593C40.4639 299.424 39.8554 300.451 39.5254 301.58C39.1954 302.708 39.1546 303.901 39.4066 305.049C39.6587 306.197 40.1955 307.264 40.9678 308.15C41.74 309.036 42.7228 309.714 43.8256 310.121C54.477 314.062 66.0022 315.023 77.1591 312.899C88.316 310.774 98.6817 305.646 107.139 298.065C115.596 290.485 121.824 280.741 125.152 269.882C128.48 259.024 128.782 247.463 126.024 236.446L225.633 140.91C237.928 144.458 250.951 144.633 263.337 141.417C275.723 138.201 287.016 131.713 296.032 122.632C305.707 112.897 312.404 100.603 315.336 87.1949C318.267 73.7864 317.312 59.8199 312.581 46.9356V46.9356ZM286.105 112.722C278.425 120.452 268.704 125.839 258.078 128.254C247.451 130.668 236.357 130.011 226.09 126.36C224.869 125.935 223.553 125.856 222.29 126.131C221.027 126.407 219.864 127.026 218.93 127.921L113.267 229.223C112.315 230.136 111.641 231.299 111.32 232.578C110.999 233.857 111.045 235.2 111.453 236.454C113.993 244.16 114.553 252.38 113.083 260.359C111.612 268.338 108.157 275.819 103.036 282.112C97.9157 288.405 91.2938 293.309 83.7805 296.372C76.2672 299.435 68.1041 300.558 60.0428 299.638L80.3682 279.318C81.0195 278.667 81.5361 277.895 81.8886 277.045C82.2411 276.194 82.4225 275.283 82.4225 274.363C82.4225 273.442 82.2411 272.531 81.8886 271.681C81.5361 270.83 81.0195 270.058 80.3682 269.408L47.5616 236.603C46.223 235.335 44.4497 234.629 42.6064 234.629C40.763 234.629 38.9897 235.335 37.6511 236.603L17.3297 256.923C16.4096 248.862 17.5327 240.699 20.5956 233.186C23.6585 225.674 28.5627 219.052 34.8565 213.932C41.1503 208.812 48.6314 205.358 56.6106 203.887C64.5899 202.417 72.8109 202.978 80.5164 205.519C81.767 205.92 83.1048 205.963 84.3784 205.643C85.6521 205.323 86.811 204.653 87.724 203.709L189.075 98.0671C189.97 97.1336 190.589 95.971 190.865 94.7076C191.14 93.4442 191.061 92.1292 190.637 90.9079C187.315 81.4835 186.496 71.3584 188.26 61.5227C190.024 51.6871 194.311 42.4776 200.701 34.7949C207.091 27.1123 215.366 21.2195 224.716 17.6928C234.066 14.1662 244.171 13.1264 254.043 14.6751L228.573 40.1448C227.921 40.7952 227.405 41.5676 227.052 42.4178C226.7 43.268 226.518 44.1794 226.518 45.0998C226.518 46.0202 226.7 46.9315 227.052 47.7817C227.405 48.6319 227.921 49.4043 228.573 50.0547L266.933 88.4214C267.583 89.0726 268.356 89.5892 269.206 89.9417C270.056 90.2942 270.968 90.4756 271.888 90.4756C272.809 90.4756 273.72 90.2942 274.57 89.9417C275.421 89.5892 276.193 89.0726 276.843 88.4214L302.314 62.9517C303.703 71.9361 302.96 81.121 300.148 89.7659C297.335 98.4109 292.53 106.274 286.121 112.722H286.105Z" fill="#C5C5C5"/>
</g>
<defs>
<filter id="filter0_d" x="-1" y="0" width="322" height="338" filterUnits="userSpaceOnUse" color-interpolation-filters="sRGB">
<feFlood flood-opacity="0" result="BackgroundImageFix"/>
<feColorMatrix in="SourceAlpha" type="matrix" values="0 0 0 0 0 0 0 0 0 0 0 0 0 0 0 0 0 0 127 0" result="hardAlpha"/>
<feOffset dy="20"/>
<feGaussianBlur stdDeviation="2"/>
<feComposite in2="hardAlpha" operator="out"/>
<feColorMatrix type="matrix" values="0 0 0 0 0 0 0 0 0 0 0 0 0 0 0 0 0 0 1 0"/>
<feBlend mode="normal" in2="BackgroundImageFix" result="effect1_dropShadow"/>
<feBlend mode="normal" in="SourceGraphic" in2="effect1_dropShadow" result="shape"/>
</filter>
</defs>
</svg>
